HIERARCHY
ROOT mid_hip
{
    OFFSET 0.0 0.0 0.0
    CHANNELS 6 Xposition Yposition Zposition Zrotation Xrotation Yrotation
    JOINT left_hip
    {
        OFFSET 0.052107493005852816 0.0 0.0
        CHANNELS 3 Zrotation Xrotation Yrotation
        JOINT left_knee
        {
            OFFSET 0.0 0.0 -0.3580183675340307
            CHANNELS 3 Zrotation Xrotation Yrotation
            JOINT left_ankle
            {
                OFFSET 0.0 0.0 -0.39042564824872394
                CHANNELS 3 Zrotation Xrotation Yrotation
                JOINT left_foot_index
                {
                    OFFSET 0.0 -0.13779021385769952 0.0
                    CHANNELS 3 Zrotation Xrotation Yrotation
                    End Site
                    {
                        OFFSET 0.0 -0.0551160855430798 0.0
                    }
                }
            }
        }
    }
    JOINT spine
    {
        OFFSET 0.0 0.0 0.12353791427585101
        CHANNELS 3 Zrotation Xrotation Yrotation
        JOINT mid_shoulder
        {
            OFFSET 0.0 0.0 0.3706137404650476
            CHANNELS 3 Zrotation Xrotation Yrotation
            JOINT left_shoulder
            {
                OFFSET 0.16577621935375614 0.0 0.0
                CHANNELS 3 Zrotation Xrotation Yrotation
                JOINT left_elbow
                {
                    OFFSET 0.25817205166865476 0.0 0.0
                    CHANNELS 3 Zrotation Xrotation Yrotation
                    JOINT left_wrist
                    {
                        OFFSET 0.24384774574484952 0.0 0.0
                        CHANNELS 3 Zrotation Xrotation Yrotation
                        End Site
                        {
                            OFFSET 0.09753909829793983 0.0 0.0
                        }
                    }
                }
            }
            JOINT right_shoulder
            {
                OFFSET -0.16577621935375614 0.0 0.0
                CHANNELS 3 Zrotation Xrotation Yrotation
                JOINT right_elbow
                {
                    OFFSET -0.25817205166865476 0.0 0.0
                    CHANNELS 3 Zrotation Xrotation Yrotation
                    JOINT right_wrist
                    {
                        OFFSET -0.24384774574484952 0.0 0.0
                        CHANNELS 3 Zrotation Xrotation Yrotation
                        End Site
                        {
                            OFFSET -0.09753909829793983 0.0 0.0
                        }
                    }
                }
            }
            End Site
            {
                OFFSET 0.0 0.0 0.14824549618601904
            }
        }
    }
    JOINT right_hip
    {
        OFFSET -0.052107493005852816 0.0 0.0
        CHANNELS 3 Zrotation Xrotation Yrotation
        JOINT right_knee
        {
            OFFSET 0.0 0.0 -0.3580183675340307
            CHANNELS 3 Zrotation Xrotation Yrotation
            JOINT right_ankle
            {
                OFFSET 0.0 0.0 -0.39042564824872394
                CHANNELS 3 Zrotation Xrotation Yrotation
                JOINT right_foot_index
                {
                    OFFSET 0.0 -0.13779021385769952 0.0
                    CHANNELS 3 Zrotation Xrotation Yrotation
                    End Site
                    {
                        OFFSET 0.0 -0.0551160855430798 0.0
                    }
                }
            }
        }
    }
}
MOTION
Frames: 8
Frame Time: 0.03333333333333333
-0.16853360831737518 -0.3916177451610565 0.5999284982681274 21.9985547589728 78.10987881836019 -23.84412014847633 -0.397174228608289 -2.764672553944221 -5.637983282426602 2.290608062807085 42.00545173818889 11.48323948340531 9.939387014766261 8.633585712417092 1.4074410116360925e-15 -1.5902773407317584e-15 0.0 0.0 -2.706453811875429e-06 -1.8852483020355133e-05 3.741691726170734e-06 0.11812557038070479 2.0744040352769367e-15 -3.997079259699154e-16 52.648092851692255 4.75857538060471 62.30971013825176 -84.16953831950262 9.149065059530879e-16 6.923156683755638e-16 7.951386703658792e-16 -4.827710013492361e-33 -6.957463365701443e-16 -49.11245685883723 -4.460839512659539 -57.97957991364655 79.70225239978497 -2.2473233284333153e-15 -9.51717765440738e-15 0.0 0.0 9.939233379573488e-16 -0.37722595525169333 -2.625577888412285 4.137491434868742 9.414824869443912 36.84300405701235 -9.20909063512763 -18.642374400914147 16.128581643313723 -2.0692925879543216e-15 -3.975693351829396e-16 0.0 0.0
-0.1710422784090042 -0.317866712808609 0.6073336601257324 18.71512517281204 79.78597833900635 -20.299123127178866 -1.100706730882937 -7.352218235225937 -5.36038588448033 3.209637897693199 45.236872516863826 5.477026988736757 0.026864448452849764 12.168042896776285 -2.55025668336682e-15 -1.1927080055488188e-15 0.0 0.0 -3.3162929454887327e-07 -2.227507803406141e-06 2.0223793382673627e-06 1.6246467198962269 -2.3687853406654835e-15 -5.628277245455013e-16 44.79669396458217 -0.40152391829523726 63.68373080929934 -95.71105122598729 -2.0487781075490187e-15 7.216117946716661e-15 0.0 0.0 0.0 -40.809323780806324 -8.832848372104586 -58.85555836289258 89.112995102853 3.481664481103116e-17 -4.4978488152452495e-15 0.0 0.0 -1.987846675914698e-15 -0.9557413497736404 -6.392624119624594 1.48929671186028 8.626994211576077 40.35716256441523 -3.6636931871988705 -5.771178218881341 8.736618734816897 1.2569890013821387e-15 0.0 0.0 0.0
-0.17399096488952637 -0.2372554987668991 0.6173229217529297 18.870708027474812 82.21532556167736 -19.81913905441218 -2.480235397767364 -15.865332072505787 -6.413623629227242 4.321700705781213 59.026675602128925 -0.02294105968136721 -8.06876627244717 -9.24283112832182 -6.041986332443524e-16 0.0 0.0 0.0 4.5542221065167624e-08 2.9909485160348597e-07 3.172674805596306e-08 3.1844639274986006 -8.424364917400418e-15 1.42733947349644e-15 33.10951496394899 -7.592809909419635 61.63102838282187 -102.33870498267693 -3.716490946000321e-15 2.991409907100914e-15 0.0 0.0 0.0 -30.900049295639818 -14.215316329053197 -57.05893580719909 88.96244604668438 1.2217750341890354e-16 -1.3493397575469611e-14 -3.1805546814635168e-15 -4.4139062980501586e-32 1.5902773407317584e-15 -2.124796309943137 -13.684918500276295 -0.937965558059716 10.841823396995864 53.32200079668073 -3.967586808778201 -7.525321391565954 -15.857911050627521 0.0 2.2069531490250793e-32 -6.3611093629270335e-15 3.975693351829396e-16
-0.1739664375782013 -0.22176429629325867 0.6413901448249817 33.52246480748882 85.08448926746141 -34.10959470140334 -3.4481400786924 -21.251001460861236 -6.651012696588342 4.995639998471724 60.789040255346016 2.0649854740195313 -1.159451789404352 -13.571938306112486 -3.271919603135046e-15 3.975693351829395e-16 6.336261279478098e-15 -2.1983322382867e-32 2.91979369363701e-06 1.887942433843767e-05 -8.548075515362885e-07 2.771279132682322 8.610149776589401e-15 -6.059538570634094e-16 21.66836259137555 -5.527923593652051 60.381342041365684 -102.19226542818463 7.98975163812393e-15 9.900440296752863e-15 0.0 0.0 -1.5902773407317584e-15 -17.521881251197115 -14.339137063955738 -55.435352781035085 74.02399125934011 -4.141807583143487e-15 -2.852235991054009e-15 3.1805546814635176e-15 8.827812596100317e-32 3.1805546814635176e-15 -3.5072062647092266 -21.581392617501287 -2.5798036925541328 10.975765437311692 57.63515794472857 -4.641941639145094 -13.349648662649237 -14.616627043174267 -1.2325998930753103e-15 3.9601632996738124e-16 6.118405155387788e-34 1.770425945736528e-16
-0.1763717383146286 -0.28383105993270874 0.6547618508338928 58.85451878387 83.47654784726309 -58.869441732562215 -2.5982442369323655 -17.350466778864963 -7.498472499324462 1.239926018212315 47.0554870393278 7.830378153024961 1.9673762734243647 2.5480187956914957 1.2995972539154022e-15 7.951386703658792e-16 -1.1034765745125397e-32 -1.5902773407317584e-15 -1.4280138766057258e-06 -9.841929758164172e-06 9.339351948858801e-07 0.6105696138400835 7.845527924549837e-15 -1.2345280701426325e-15 10.579061376737256 1.6483181593810503 64.51634785201945 -86.27828054518349 -7.680711911721353e-15 2.3313872070081637e-14 -1.5902773407317584e-15 -2.2069531490250793e-32 1.5902773407317584e-15 -7.032131861232718 -8.58008481378831 -58.47460305685894 48.8598402325657 2.680214052687253e-15 5.6599851254846974e-15 1.5405811738338919e-15 -6.410805529824903e-15 8.050779037454528e-15 -2.2379505076565436 -15.063243116367957 0.833274594743166 8.291774720900095 41.10646742378583 -6.942324187217881 -9.59466638023042 -2.3043424834539086 1.9148508685151143e-15 3.1060104311167156e-18 1.1786401400127834e-36 4.348414603563402e-17
-0.17707893252372742 -0.3722989559173584 0.6684907674789429 65.26975652902773 81.63685318443618 -65.32258058087811 -1.6105754000427748 -11.575787728458476 -7.485676169334325 0.2717578145186867 28.975858579042423 10.912424050056563 9.3669409527792 29.18798914055599 -4.553931919130464e-16 0.0 0.0 0.0 -2.7125239898050404e-06 -1.976811793392271e-05 -6.807419504699501e-06 0.8851072534203013 6.174424081221712e-15 1.5426324696494785e-15 8.96802303309723 1.6098519071245354 73.34925068087344 -59.05850643249054 8.486127922766717e-15 1.1515691344163236e-15 0.0 0.0 7.951386703658792e-16 -9.885670039340908 -8.00831950009118 -66.81618384858898 21.600290079999144 -2.0307409233584665e-14 3.873898769315483e-15 0.0 0.0 -1.5902773407317584e-15 -0.8679950469423827 -6.299937947991103 2.4418288981993546 3.8583382764323644 20.31302799966628 -5.025295436257861 -10.164439334155857 25.424866609970817 -8.804069184448019e-16 4.9696166897867443e-17 4.310455369189608e-35 9.939233379573489e-17
-0.1755460798740387 -0.44031620025634766 0.687385082244873 75.7537776478601 79.99529303945934 -76.23646503697998 -2.133064276168322 -15.630165991137524 -6.128841281080901 1.366987408413977 38.11119449773228 12.288294202776012 13.504947454400638 23.991296376777182 -3.0461507365053756e-15 1.5902773407317584e-15 4.4139062980501586e-32 3.1805546814635168e-15 5.1864648689398854e-08 3.8984816745406417e-07 4.591167136443623e-06 -1.4464471423544023 1.417231572370711e-14 -6.163005843324334e-16 27.85194999558301 -0.36765552806667784 81.08365480311502 -39.51550295061458 -2.4557325650528226e-15 -2.571825746656147e-15 0.0 0.0 -1.5902773407317584e-15 -32.963994310385736 -9.444117357789361 -74.64554157606166 12.530778515532601 1.3884249354307379e-15 1.2646229695333942e-14 0.0 0.0 -3.1805546814635168e-15 -1.5994149359316574 -11.848812961226667 3.5844292062203085 7.382776407083467 32.676537122660825 -9.179812386557431 -14.244543470347129 24.083265773884836 1.3064281350860308e-15 0.0 0.0 0.0
-0.17804844677448273 -0.48175257444381714 0.7077338695526123 82.50160358672423 76.73693475296893 -82.7965622567583 -2.934783767268467 -21.488773853166887 -4.472225320254433 5.291203656557805 56.486861554135615 7.326836018404098 7.911133398285154 13.021894679289252 -2.448378432156672e-15 -1.5902773407317584e-15 0.0 0.0 -2.3460288907114484e-06 -1.8039219446200904e-05 4.300294984770088e-06 -6.175445325201588 -4.8135299169520544e-15 -2.5965700539204184e-16 47.73264473757448 -0.15919867455898098 81.7302762543411 -31.821278986327464 8.733148762157961e-15 -7.43230635544259e-15 0.0 0.0 0.0 -54.16654863931196 -9.719400035591049 -77.12376210798251 11.234478035519581 1.2713206949317211e-15 -3.3209417027196816e-15 0.0 0.0 0.0 -2.6939238173367968 -19.869808873639833 1.01451715532542 13.707240655350796 56.55245408979583 -13.785631269946949 -14.917994471771317 10.994459491786271 -2.0250145418504133e-16 0.0 0.0 0.0
